<?xml version="1.0" standalone="no"?>
<!DOCTYPE svg PUBLIC "-//W3C//DTD SVG 1.1//EN" "http://www.w3.org/Graphics/SVG/1.1/DTD/svg11.dtd" >
<svg xmlns="http://www.w3.org/2000/svg">
<metadata>
This is a custom SVG webfont generated by Font Squirrel.
Copyright   : Copyright c 1991 Adobe Systems Incorporated  All Rights ReservedITC Avant Garde Gothic is a registered trademark of International Typeface Corporation
</metadata>
<defs>
<font id="webfont2UAJzVYV" horiz-adv-x="1136" >
<font-face units-per-em="2048" ascent="1638" descent="-410" />
<missing-glyph horiz-adv-x="567" />
<glyph unicode=" "  horiz-adv-x="567" />
<glyph unicode="&#x09;" horiz-adv-x="567" />
<glyph unicode="&#xa0;" horiz-adv-x="567" />
<glyph unicode="!" horiz-adv-x="567" d="M391 250v-250h-213v250h213zM391 1516v-1143h-213v1143h213z" />
<glyph unicode="&#x22;" horiz-adv-x="665" d="M225 909h-145l-39 607h225zM586 909h-146l-39 607h226z" />
<glyph unicode="#" d="M1012 590l-4 -172h-187l-59 -418h-180l57 418h-209l-59 -418h-181l58 418h-187l5 172h206l35 254h-184l4 172h205l57 418h182l-57 -418h209l57 418h183l-58 -418h168l-4 -172h-188l-35 -254h166zM698 844h-209l-34 -254h209z" />
<glyph unicode="$" d="M479 1686h195v-230q131 -16 214 -107.5t89 -246.5h-213q-14 172 -180 172q-82 0 -127 -58.5t-45 -134.5q0 -92 55 -129t188 -71q340 -82 342 -406q0 -59 -14 -119.5t-48 -124t-101.5 -110.5t-159.5 -62v-227h-195v227q-322 82 -340 412h213q10 -123 77 -176t151 -53 q100 0 152 66.5t52 166.5q0 49 -19.5 88t-44 61.5t-66.5 42t-66.5 26.5l-65.5 18q-137 43 -196 88q-127 98 -127 282q0 51 13 103.5t43 108t88 99.5t136 64v230z" />
<glyph unicode="%" horiz-adv-x="1714" d="M1049 340q0 -78 54 -134t132 -56t132 56t54 134t-54 134t-132 56t-132 -56t-54 -134zM864 340q0 152 109.5 259.5t261 107.5t261.5 -107.5t110 -259.5t-110 -259.5t-261.5 -107.5t-261 107.5t-109.5 259.5zM106 1171.5q0 151.5 110 259t261.5 107.5t261 -107.5 t109.5 -259t-109.5 -259t-261 -107.5t-261.5 107.5t-110 259zM291 1171.5q0 -77.5 54 -134t132 -56.5t132.5 56.5t54.5 134t-54.5 134t-132.5 56.5t-132 -56.5t-54 -134zM1352 1516l-869 -1516h-137l868 1516h138z" />
<glyph unicode="&#x26;" horiz-adv-x="1400" d="M1327 932l-248 -500l305 -311l-147 -150l-264 267q-178 -266 -441 -267q-195 0 -328.5 131t-133.5 322q0 137 73.5 253t216.5 179q-72 74 -108.5 139.5t-36.5 161.5q0 166 111.5 276.5t271.5 110.5q154 0 265.5 -109.5t111.5 -275.5q0 -242 -254 -364l201 -197l165 334 h240zM565 942q100 53 144.5 99t44.5 124q0 86 -50.5 131t-107.5 45q-63 0 -111.5 -49t-48.5 -135q0 -96 129 -215zM825 391l-319 316q-215 -74 -215 -283q0 -102 65.5 -176t175.5 -74q176 0 293 217z" />
<glyph unicode="'" horiz-adv-x="446" d="M295 909h-143l-41 607h225z" />
<glyph unicode="(" horiz-adv-x="833" d="M731 -260v-266q-104 53 -207.5 145t-199 221t-153.5 307.5t-58 370.5q0 324 171 607.5t435 420.5v-264q-82 -74 -130 -125t-117 -147.5t-103.5 -219t-34.5 -270.5q0 -160 40 -294t113.5 -232t121.5 -146.5t122 -107.5z" />
<glyph unicode=")" horiz-adv-x="833" d="M102 1280v266q106 -55 211 -148t199 -222t151.5 -305.5t57.5 -368.5q0 -324 -171 -607.5t-435 -420.5v264l102 94q37 35 98.5 111.5t95 148.5t61.5 180.5t28 227.5q0 129 -31 245.5t-69 192.5t-102.5 152.5t-100.5 109.5z" />
<glyph unicode="*" horiz-adv-x="1173" d="M520 1221l-2 295h144l-7 -295l279 94l45 -135l-283 -88l178 -236l-116 -84l-170 242l-170 -242l-117 84l178 236l-282 88l45 135z" />
<glyph unicode="+" horiz-adv-x="1228" d="M508 625v411h213v-411h409v-213h-409v-412h-213v412h-410v213h410z" />
<glyph unicode="," horiz-adv-x="567" d="M391 250v-227q0 -240 -213 -283v127q23 8 35 15t26.5 34t14.5 66v18h-76v250h213z" />
<glyph unicode="-" horiz-adv-x="573" d="M573 485h-573v213h573v-213z" />
<glyph unicode="." horiz-adv-x="567" d="M391 0h-213v250h213v-250z" />
<glyph unicode="/" horiz-adv-x="1021" d="M317 -205h-233l590 1721h233z" />
<glyph unicode="0" d="M1059 1047v-560q0 -104 -21.5 -184t-89.5 -158q-156 -174 -383 -174q-231 0 -383 185q-104 127 -104 348v528q0 137 49 241.5t127 161t160 84t159 27.5q186 0 336 -134t150 -365zM846 487v560q0 94 -31 159.5t-78 94t-87 40t-79 11.5q-45 0 -90 -14.5t-90 -46t-72.5 -95 t-27.5 -149.5v-560q0 -88 26.5 -153.5t61.5 -96t81 -48t69.5 -20.5t43.5 -3q119 0 205 96q31 37 47.5 79t18.5 68.5t2 77.5z" />
<glyph unicode="1" d="M739 1516v-1516h-213v1321h-223v195h436z" />
<glyph unicode="2" d="M1032 0h-948v178l596 606q137 137 137 277q0 113 -70.5 201t-187.5 88q-104 0 -187 -79t-83 -237v-39h-213q-2 127 32.5 227.5t87 159t120 97.5t125 52t110.5 13q211 0 345 -146.5t134 -342.5q0 -135 -55 -230.5t-156 -197.5l-422 -432h635v-195z" />
<glyph unicode="3" d="M45 446h213q4 -76 31.5 -131t61.5 -82.5t77 -44t67.5 -19.5t45.5 -3q121 0 196.5 87t75.5 191q0 121 -83 197t-200 76h-77v213h73q61 0 107.5 22.5t67 49t32.5 62.5t13.5 51t1.5 26q0 86 -57.5 147.5t-145.5 61.5q-18 0 -35.5 -2t-46.5 -14.5t-51.5 -34t-43 -63.5 t-26.5 -99h-213q6 98 42 173.5t84 119t107.5 70t104.5 35.5t84 9q178 0 294 -118.5t116 -301.5q0 -76 -23 -136t-47.5 -89t-69.5 -70q205 -131 205 -376q0 -221 -142.5 -351.5t-348.5 -130.5q-197 0 -342.5 135t-147.5 340z" />
<glyph unicode="4" d="M930 1516v-1084h160v-194h-160v-238h-213v238h-692v206l692 1072h213zM270 432h447v729h-4z" />
<glyph unicode="5" d="M248 1516h692v-195h-516l-57 -336q92 61 211 62q225 0 366 -154t141 -379q0 -219 -144 -381t-374 -162q-213 0 -353 136.5t-163 351.5h213q27 -131 106 -212t199.5 -81t211.5 96t91 236q0 143 -80.5 248.5t-213.5 105.5q-174 0 -273 -158l-184 43z" />
<glyph unicode="6" d="M592 1516h252l-322 -498q57 10 90 10q211 0 349.5 -149.5t138.5 -362.5q0 -227 -149.5 -386t-372.5 -159q-129 0 -234.5 52.5t-167 133.5t-93.5 167t-32 163q0 174 115 363zM264 508q0 -143 89 -242.5t225 -99.5q131 0 220 99.5t89 228.5q0 143 -88 241.5t-217 98.5 q-131 0 -224.5 -96.5t-93.5 -229.5z" />
<glyph unicode="7" d="M145 1516h879v-195l-555 -1321h-238l572 1321h-658v195z" />
<glyph unicode="8" d="M844 836q203 -135 203 -383q0 -201 -142.5 -341.5t-337.5 -140.5q-188 0 -333.5 133.5t-145.5 341.5q0 242 199 390q-39 39 -59.5 64.5t-45 88t-24.5 137.5q0 178 124 298t289 120q168 0 288 -123t120 -293q0 -82 -25.5 -145t-48 -87.5t-61.5 -59.5zM766 1149 q0 74 -53.5 137.5t-143.5 63.5q-86 0 -142 -62.5t-56 -146.5q0 -78 53 -142.5t143 -64.5q94 0 146.5 63.5t52.5 151.5zM834 434q0 127 -82 205t-185 78q-115 0 -190.5 -85t-75.5 -196q0 -113 78 -191.5t186 -78.5q115 0 192 83t77 185z" />
<glyph unicode="9" d="M545 0h-252l321 498q-70 -8 -88 -9q-197 0 -343 143.5t-146 368.5q0 223 148.5 383t371.5 160q131 0 236.5 -52t166 -134t92 -167t31.5 -161q0 -184 -116 -364zM870 1008q0 143 -89 242.5t-222 99.5t-221 -98.5t-88 -229.5q0 -137 89 -237.5t218 -100.5q139 0 226 102.5 t87 221.5z" />
<glyph unicode=":" horiz-adv-x="567" d="M391 0h-213v250h213v-250zM391 887h-213v250h213v-250z" />
<glyph unicode=";" horiz-adv-x="567" d="M391 250v-227q0 -240 -213 -283v127q23 8 35 15t26.5 34t14.5 66v18h-76v250h213zM391 887h-213v250h213v-250z" />
<glyph unicode="&#x3c;" horiz-adv-x="1228" d="M1135 193v-209l-1041 446v176l1041 447v-209l-764 -326z" />
<glyph unicode="=" horiz-adv-x="1228" d="M1130 848v-213h-1032v213h1032zM1130 401v-213h-1032v213h1032z" />
<glyph unicode="&#x3e;" horiz-adv-x="1228" d="M94 193l764 325l-764 326v209l1041 -447v-176l-1041 -446v209z" />
<glyph unicode="?" horiz-adv-x="1060" d="M621 389h-213q2 109 40.5 205t76.5 144t96 106q92 94 118.5 134t26.5 99q0 106 -70.5 179t-171.5 73q-127 0 -202 -110q-33 -45 -43 -136h-213q6 123 53 217.5t118.5 144.5t144.5 74.5t144 24.5q193 0 323 -139t130 -320q0 -90 -30.5 -163.5t-60.5 -106.5t-91 -88 q-70 -61 -109 -126.5t-48 -103.5t-19 -108zM621 250v-250h-213v250h213z" />
<glyph unicode="@" horiz-adv-x="1556" d="M1051 1122h151l-86 -473q-16 -102 -16 -121q6 -53 51 -53q98 0 153.5 103.5t65.5 287.5q0 244 -154.5 382t-400.5 138q-283 0 -456 -182t-173 -448q0 -84 16.5 -164t62.5 -166t116 -150.5t188.5 -105.5t268.5 -41q168 0 293.5 37t193.5 86l80 -125q-279 -154 -567 -154 q-213 0 -376 70t-255 185.5t-138 249.5t-46 280q12 346 231 559t559 225q315 0 518 -182t203 -492q0 -225 -113.5 -387t-277.5 -162q-53 0 -107.5 30t-66.5 93h-4q-90 -123 -273 -123q-137 0 -228 101.5t-91 267.5q0 184 112.5 323.5t286.5 139.5q35 0 65.5 -5t52 -12.5 t42 -20.5t33 -22.5t24.5 -24.5t19 -22l12 -20l6 -14h4zM985 807q0 188 -203 188q-100 0 -172.5 -84t-72.5 -219q0 -98 49 -157.5t129 -59.5q127 0 198.5 94.5t71.5 237.5z" />
<glyph unicode="A" horiz-adv-x="1400" d="M1376 0h-235l-168 446h-545l-168 -446h-233l575 1516h199zM506 649h391l-192 580h-5z" />
<glyph unicode="B" horiz-adv-x="1187" d="M154 0v1516h393q121 0 213 -35t139 -82t77 -110.5t37 -107.5t7 -85q0 -78 -26.5 -140.5t-49 -88t-59.5 -58.5q225 -131 225 -369q0 -53 -11.5 -106t-46 -115.5t-88 -109t-146.5 -78t-212 -31.5h-452zM375 682v-479h239q147 0 211 77.5t64 159.5q0 78 -53 150 q-31 41 -79 63.5t-82 25.5t-87 3h-213zM375 1313v-428h180q139 0 191.5 63.5t52.5 149.5q0 215 -256 215h-168z" />
<glyph unicode="C" horiz-adv-x="1601" d="M1554 1128h-266q-188 213 -426 213q-236 0 -399.5 -170t-163.5 -409q0 -242 167 -415t392 -173q244 0 414 201h272q-117 -207 -304 -305.5t-384 -98.5q-322 0 -550 234.5t-228 558.5q0 328 229.5 554t550.5 226q260 0 463 -147q135 -97 233 -269z" />
<glyph unicode="D" horiz-adv-x="1499" d="M133 0v1516h492q416 0 618 -279q156 -217 156 -483q0 -154 -53.5 -303.5t-137.5 -231.5q-221 -219 -592 -219h-483zM354 1313v-1110h264q106 0 200.5 28.5t177.5 89t132.5 172t49.5 261.5q0 92 -30 185t-91.5 179t-174 140.5t-259.5 54.5h-269z" />
<glyph unicode="E" horiz-adv-x="1064" d="M950 0h-817v1516h817v-203h-596v-447h596v-202h-596v-461h596v-203z" />
<glyph unicode="F" horiz-adv-x="987" d="M354 0h-221v1516h766v-203h-545v-455h545v-203h-545v-655z" />
<glyph unicode="G" horiz-adv-x="1701" d="M1532 1135h-258q-35 39 -62.5 64.5t-82 63t-123 58t-146.5 20.5q-233 0 -397 -174t-164 -413q0 -244 171 -412t392 -168q39 0 84 8t134 39t171 116t133 214h-706v203h958q-2 -182 -72.5 -335t-183 -248t-249 -147.5t-277.5 -52.5q-328 0 -552 230.5t-224 552.5 q0 330 224 560t550 230q203 0 388.5 -106t291.5 -303z" />
<glyph unicode="H" horiz-adv-x="1372" d="M1221 0h-222v659h-624v-659h-221v1516h221v-654h624v654h222v-1516z" />
<glyph unicode="I" horiz-adv-x="526" d="M375 0h-221v1516h221v-1516z" />
<glyph unicode="J" horiz-adv-x="997" d="M836 1516v-1088q0 -125 -37 -215q-49 -117 -151.5 -179.5t-229.5 -62.5q-152 0 -271.5 91.5t-146.5 240.5h227q49 -129 193 -129q137 0 178 129q16 61 16 113v1100h222z" />
<glyph unicode="K" horiz-adv-x="1265" d="M1257 0h-272l-575 764h-4v-764h-222v1516h222v-752h4l575 752h272l-591 -752z" />
<glyph unicode="L" horiz-adv-x="909" d="M909 0h-747v1516h221v-1313h526v-203z" />
<glyph unicode="M" horiz-adv-x="1912" d="M1761 0h-221v1280h-6l-510 -1280h-133l-512 1280h-4v-1280h-221v1516h348l454 -1162l457 1162h348v-1516z" />
<glyph unicode="N" horiz-adv-x="1511" d="M1358 0h-230l-749 1171h-4v-1171h-221v1516h241l738 -1154h4v1154h221v-1516z" />
<glyph unicode="O" horiz-adv-x="1732" d="M1655 754q0 -315 -228.5 -549t-560.5 -234q-334 0 -561 234.5t-227 552t225 552t563 234.5q334 0 561.5 -231t227.5 -559zM1434 752q0 104 -37 205.5t-104.5 188.5t-179.5 141t-247 54q-139 0 -251.5 -56t-179 -145t-101.5 -188.5t-35 -193.5q0 -96 35 -195.5 t101.5 -188.5t179 -144.5t252 -55.5t252 56.5t179 144.5t101.5 185.5t35 191.5z" />
<glyph unicode="P" horiz-adv-x="1144" d="M354 598v-598h-221v1516h438q264 0 399.5 -124t135.5 -335t-135 -335t-400 -124h-217zM354 1313v-512h217q170 0 242 75.5t72 180t-72 180.5t-242 76h-217z" />
<glyph unicode="Q" horiz-adv-x="1714" d="M1671 176v-205q-90 0 -168 20.5t-117.5 41t-95.5 55.5q-211 -117 -434 -117q-322 0 -550 230.5t-228 560.5q0 328 225 555t555 227t555 -232.5t225 -553.5q0 -270 -186 -529q57 -33 99 -43t120 -10zM1094 242q-270 203 -506 202q-102 0 -176 -34q80 -111 198.5 -173.5 t254 -62.5t229.5 68zM1272 362q145 182 145 396q0 236 -160.5 409.5t-394.5 173.5q-236 0 -399.5 -174t-163.5 -419q0 -66 20 -148q117 47 289 47q316 0 664 -285z" />
<glyph unicode="R" horiz-adv-x="1216" d="M1135 0h-277l-500 702h-4v-702h-221v1516h469q270 0 404 -127q139 -133 139 -359q0 -113 -37 -202t-87 -136t-114.5 -77.5t-111.5 -40t-84 -9.5zM354 1313v-580h152q43 0 80 2t104.5 18.5t113.5 45t83 89t37 142.5q0 113 -82 198t-254 85h-234z" />
<glyph unicode="S" horiz-adv-x="1021" d="M37 449h221q0 -23 4 -49.5t18.5 -68.5t39 -75t72.5 -57.5t112 -24.5q106 0 175 69.5t69 186.5q0 31 -7.5 58.5t-14.5 46t-28.5 38t-31 29.5t-41 25.5t-38.5 18.5t-44 17.5t-39 14.5q-154 59 -212.5 90t-109.5 80q-102 100 -102 285q0 152 112.5 281.5t311.5 129.5 q190 0 312 -115.5t122 -306.5h-221q0 115 -65.5 167t-147.5 52q-92 0 -147.5 -66.5t-55.5 -139.5q0 -20 4 -40t10.5 -35.5t16.5 -29.5l20 -24q8 -10 25 -21l26 -16q8 -6 28 -14.5t26 -11.5t25.5 -10t21.5 -7l63 -25q49 -16 73 -25.5t69 -29t69 -37.5l60 -47q35 -27 54 -58.5 t38.5 -71.5t29 -91.5t9.5 -110.5q0 -201 -129 -330t-336 -129q-82 0 -162 28t-149.5 83t-112.5 150.5t-43 216.5z" />
<glyph unicode="T" horiz-adv-x="833" d="M526 0h-221v1313h-291v203h803v-203h-291v-1313z" />
<glyph unicode="U" horiz-adv-x="1316" d="M1165 1516v-1027q0 -242 -153 -389q-156 -129 -354.5 -129t-354.5 129q-154 147 -153 389v1027h221v-1020q0 -80 22.5 -141.5t54 -94.5t73.5 -53.5t74 -26.5t62.5 -6t62.5 6t74 26.5t73.5 53.5t54 94.5t22.5 141.5v1020h221z" />
<glyph unicode="V" horiz-adv-x="1400" d="M768 0h-133l-610 1516h237l440 -1137l441 1137h233z" />
<glyph unicode="W" horiz-adv-x="1855" d="M1399 0h-195l-274 1059h-4l-275 -1059h-194l-424 1516h229l289 -1141h4l293 1141h162l288 -1133h5l294 1133h226z" />
<glyph unicode="X" horiz-adv-x="1327" d="M1038 0l-376 578l-381 -578h-258l501 760l-501 756h264l375 -574l378 574h263l-506 -756l501 -760h-260z" />
<glyph unicode="Y" horiz-adv-x="1214" d="M719 0h-221v547l-471 969h247l334 -711l332 711h246l-467 -969v-547z" />
<glyph unicode="Z" horiz-adv-x="946" d="M940 0h-932v203l658 1110h-623v203h870v-203l-653 -1110h680v-203z" />
<glyph unicode="[" horiz-adv-x="833" d="M674 -274v-252q-180 72 -299 224t-119 331v927q0 123 39 226.5t103.5 173t132 116t143.5 74.5v-248q-121 -76 -160 -165t-39 -199v-830q0 -53 4 -86.5t20.5 -91t60.5 -107.5t114 -93z" />
<glyph unicode="\" horiz-adv-x="1021" d="M705 -205l-590 1721h233l590 -1721h-233z" />
<glyph unicode="]" horiz-adv-x="833" d="M160 -526v252q70 43 113.5 93t60 107.5t20.5 91t4 86.5v830q0 111 -38.5 200t-159.5 164v248q76 -29 143.5 -75t132 -115.5t103.5 -173t39 -226.5v-927q0 -178 -119 -330.5t-299 -224.5z" />
<glyph unicode="^" horiz-adv-x="1228" d="M348 727h-213l383 789h193l383 -789h-213l-267 573z" />
<glyph unicode="_" horiz-adv-x="1024" d="M1024 -256h-1024v102h1024v-102z" />
<glyph unicode="`" d="M340 1667l461 -252l-90 -164l-457 262z" />
<glyph unicode="a" horiz-adv-x="1419" d="M1282 0h-213v176h-4q-59 -100 -161.5 -152.5t-223.5 -52.5q-274 0 -438 177.5t-164 414.5q0 106 38 211t109.5 194t190.5 143t264 54q121 0 223.5 -49t161.5 -141h4v160h213v-1135zM1073 565q0 178 -112.5 292t-280.5 114q-182 0 -285.5 -127t-103.5 -279 q0 -158 111.5 -278.5t275.5 -120.5q166 0 280.5 117.5t114.5 281.5z" />
<glyph unicode="b" horiz-adv-x="1409" d="M348 0h-211v1516h213v-539h4q135 188 389 188q233 0 410.5 -171t177.5 -427q0 -248 -168 -422t-415 -174q-98 0 -208 44t-188 149h-4v-164zM344 571q0 -182 117 -293.5t270 -111.5q156 0 271.5 117.5t115.5 283.5q0 164 -111.5 284t-275.5 120q-168 0 -277.5 -121 t-109.5 -279z" />
<glyph unicode="c" horiz-adv-x="1284" d="M1219 758h-236q-104 213 -319 213q-129 0 -217.5 -66.5t-122 -153.5t-33.5 -182q0 -160 98 -281.5t270 -121.5q115 0 197 57.5t125 151.5h238q-63 -186 -216 -295t-344 -109q-264 0 -422.5 181.5t-158.5 416.5q0 242 161.5 419t422.5 177q219 0 368.5 -128.5 t188.5 -278.5z" />
<glyph unicode="d" horiz-adv-x="1406" d="M1270 0h-197v162h-4q-137 -190 -401 -191q-180 0 -318.5 87t-205 219.5t-66.5 285.5q0 106 37 211t106.5 194t186 143t260.5 54q117 0 220 -46t165 -124h4v521h213v-1516zM1073 565q0 178 -112.5 292t-280.5 114q-182 0 -285.5 -127t-103.5 -279q0 -158 111.5 -278.5 t275.5 -120.5q166 0 280.5 117.5t114.5 281.5z" />
<glyph unicode="e" horiz-adv-x="1314" d="M1233 475h-940q37 -154 144.5 -231.5t228.5 -77.5q111 0 196.5 55t126.5 135h213q-51 -137 -151.5 -228t-197.5 -124t-196 -33q-240 0 -408.5 177.5t-168.5 420.5q0 252 170 424t412 172q233 0 404 -168t173 -413q0 -66 -6 -109zM293 639h733q-8 129 -113.5 230.5 t-253 101.5t-253 -101.5t-113.5 -230.5z" />
<glyph unicode="f" horiz-adv-x="567" d="M356 0h-213v940h-100v195h100v55q0 172 136 264q66 39 121 50.5t155 11.5v-195q-199 0 -199 -131v-55h199v-195h-199v-940z" />
<glyph unicode="g" horiz-adv-x="1427" d="M1292 1135v-981q0 -281 -162.5 -440.5t-451.5 -159.5q-195 0 -341.5 96t-217.5 262h237q119 -164 324 -164q182 2 290.5 97.5t108.5 304.5h-4q-131 -178 -391 -179q-178 0 -320.5 93.5t-214 229.5t-71.5 277q0 98 39 199.5t110.5 192t192.5 146.5t268 56q121 0 225.5 -46 t165.5 -115v131h213zM1079 565q0 113 -42 197t-107.5 127t-128 62.5t-117.5 19.5q-166 0 -279.5 -120t-113.5 -284q0 -158 112.5 -279.5t278.5 -121.5q98 0 178 41t126 104.5t69.5 130t23.5 123.5z" />
<glyph unicode="h" horiz-adv-x="1273" d="M1143 0h-213v616q0 354 -283 355q-137 0 -218 -92.5t-81 -260.5v-618h-213v1516h213v-502h4q102 152 318 151q270 0 401 -202q70 -113 72 -291v-672z" />
<glyph unicode="i" horiz-adv-x="487" d="M350 1135v-1135h-213v1135h213zM350 1516v-250h-213v250h213z" />
<glyph unicode="j" horiz-adv-x="509" d="M377 1135v-1102q0 -111 -4 -161t-32 -110.5t-85 -109.5q-115 -98 -233 -98v223q41 2 68.5 17.5t41.5 33.5t21.5 57t8.5 65.5t1 82.5v1102h213zM377 1516v-250h-213v250h213z" />
<glyph unicode="k" horiz-adv-x="1118" d="M778 1135h252l-412 -535l478 -600h-267l-454 588h-4v-588h-213v1516h213v-928h4z" />
<glyph unicode="l" horiz-adv-x="487" d="M350 1516v-1516h-213v1516h213z" />
<glyph unicode="m" horiz-adv-x="1988" d="M1853 0h-213v631q0 340 -268 340q-43 0 -80 -9.5t-63.5 -21.5t-46.5 -37l-33 -41q-14 -16 -23.5 -51t-13.5 -48t-7 -50t-3 -43v-37v-633h-213v631v22q0 134 -47 211q-70 106 -211 107q-281 0 -281 -338v-633h-213v1135h197v-123h4q2 2 13 15t16.5 18.5t18.5 19.5t24 20 l28 21q16 12 31.5 19.5t38 15.5t45 13t51.5 8t60 3q111 0 211 -50t141 -140q23 35 41 56.5t62 58t114 56t158 19.5q281 0 399 -204q63 -115 63 -277v-684z" />
<glyph unicode="n" horiz-adv-x="1277" d="M1143 0h-213v616q0 354 -283 355q-137 0 -218 -92.5t-81 -260.5v-618h-213v1135h199v-121h4q115 152 332 151q270 0 401 -202q70 -113 72 -291v-672z" />
<glyph unicode="o" horiz-adv-x="1382" d="M1303 571q0 -143 -71 -278t-215.5 -228.5t-326.5 -93.5q-270 0 -441 186.5t-171 417.5q0 238 177 414t435 176q256 0 434.5 -175t178.5 -419zM1090 571q0 158 -113 279t-287 121t-286.5 -121t-112.5 -280.5t113.5 -281.5t285.5 -122q170 0 285 120.5t115 284.5z" />
<glyph unicode="p" horiz-adv-x="1404" d="M137 -379v1514h195v-174h4q141 205 403 204q272 0 430 -183t158 -429q0 -229 -158.5 -405.5t-414.5 -176.5q-158 0 -257.5 59.5t-142.5 133.5h-4v-543h-213zM1114 565q0 160 -110.5 283t-278.5 123q-164 0 -271.5 -120t-107.5 -282q0 -172 111.5 -287.5t273.5 -115.5 q156 0 269.5 112.5t113.5 286.5z" />
<glyph unicode="q" horiz-adv-x="1406" d="M1270 1135v-1514h-213v537h-4q-57 -86 -161 -136.5t-218 -50.5q-266 0 -430 181.5t-164 416.5q0 240 164 418t424 178q90 0 168.5 -24.5t126 -59t73 -59.5t33.5 -39h4v152h197zM1075 563q0 170 -111.5 289t-281.5 119q-172 0 -280.5 -119t-108.5 -283 q0 -166 110.5 -284.5t282.5 -118.5q168 0 278.5 118.5t110.5 278.5z" />
<glyph unicode="r" horiz-adv-x="655" d="M350 0h-213v1135h199v-103h4q88 125 289 133v-219q-76 0 -154 -41q-125 -68 -125 -284v-621z" />
<glyph unicode="s" horiz-adv-x="868" d="M797 834h-213q-18 137 -146 137q-59 0 -96 -34t-37 -87q0 -45 27.5 -75t57.5 -42t91 -31l47 -14q16 -6 58.5 -23.5t68 -34t61.5 -47t56.5 -63.5t35.5 -82t15 -104q0 -156 -102.5 -259.5t-278.5 -103.5q-59 0 -123.5 20.5t-129 62.5t-106.5 125t-42 194h213 q6 -96 55 -151.5t137 -55.5q74 0 119 42t45 114q0 68 -48 102.5t-150 71.5q-8 2 -23 8q-66 23 -101.5 40t-90 56t-80 98.5t-25.5 139.5q0 131 100.5 229t256.5 98q74 0 147.5 -28.5t136 -107t64.5 -195.5z" />
<glyph unicode="t" horiz-adv-x="567" d="M375 940v-940h-213v940h-154v195h154v381h213v-381h186v-195h-186z" />
<glyph unicode="u" horiz-adv-x="1277" d="M135 1135h213v-615q0 -197 76 -275.5t207 -78.5q137 0 217 90t80 270v609h213v-1135h-195v123h-4q-43 -72 -133 -112t-201 -40q-195 0 -323 113q-150 129 -150 436v615z" />
<glyph unicode="v" horiz-adv-x="1099" d="M1073 1135l-446 -1135h-150l-450 1135h227l297 -811h4l291 811h227z" />
<glyph unicode="w" horiz-adv-x="1628" d="M1602 1135l-420 -1135h-119l-246 764h-4l-246 -764h-116l-424 1135h227l252 -738h4l235 738h140l235 -738h4l250 738h228z" />
<glyph unicode="x" horiz-adv-x="1060" d="M774 1135h258l-370 -553l395 -582h-250l-281 403l-274 -403h-248l393 582l-379 553h258l250 -373z" />
<glyph unicode="y" horiz-adv-x="1175" d="M1155 1135l-627 -1514h-221l166 402l-453 1112h230l334 -881l342 881h229z" />
<glyph unicode="z" horiz-adv-x="833" d="M59 1135h725v-207l-514 -733h557v-195h-821v166l545 774h-492v195z" />
<glyph unicode="{" horiz-adv-x="681" d="M29 473v176q63 0 125.5 43t62.5 127v420q0 131 85 204t196 73h133v-162h-90q-111 0 -111 -150v-413q0 -113 -66.5 -166.5t-136.5 -59.5v-6q203 -27 203 -242v-411q0 -150 111 -150h90v-162h-133q-111 0 -196 73t-85 204v418q0 92 -62.5 138t-125.5 46z" />
<glyph unicode="|" d="M453 1516h231v-1721h-231v1721z" />
<glyph unicode="}" horiz-adv-x="681" d="M653 637v-176q-63 0 -125.5 -43t-62.5 -127v-420q0 -131 -85 -204t-196 -73h-133v162h90q111 0 111 150v413q0 113 66.5 166.5t136.5 59.5v6q-203 27 -203 242v411q0 150 -111 150h-90v162h133q111 0 196 -73t85 -204v-418q0 -92 62.5 -138t125.5 -46z" />
<glyph unicode="~" horiz-adv-x="1228" d="M1014 694l73 -168q-41 -55 -67.5 -85.5t-77.5 -60.5t-111 -30q-86 0 -208 68q-127 72 -236 71q-104 0 -172 -147l-74 168q92 176 256 176q80 0 228 -65l43 -19q31 -14 47 -20l41 -17q25 -10 43 -14t35 -4q39 0 74.5 24.5t55 50t50.5 72.5z" />
<glyph unicode="&#xa1;" horiz-adv-x="567" d="M389 758v-1137h-213v1137h213zM389 1137v-250h-213v250h213z" />
<glyph unicode="&#xa2;" d="M813 653h240q-43 -123 -141.5 -202.5t-231.5 -108.5v-201h-195v201q-121 27 -206.5 87t-126.5 136t-57.5 141.5t-16.5 129.5q0 178 108.5 312t298.5 171v197h195v-197q137 -20 234.5 -105.5t144.5 -220.5h-244q-25 51 -84 86t-145 35q-143 0 -219 -91t-76 -198 q0 -111 81 -197.5t214 -86.5q149 -1 227 112z" />
<glyph unicode="&#xa3;" d="M877 557h229q12 -66 12 -113q0 -76 -22.5 -148.5t-71.5 -142t-144.5 -111.5t-226.5 -42h-567v195h270q41 78 43 178q0 197 -151 297h-230v194h82q-47 84 -47 185q0 209 135.5 352t366.5 143q174 0 316.5 -107.5t181.5 -301.5h-232q-68 215 -272 215q-129 0 -206 -88 t-77 -213q0 -109 76 -185h449v-194h-287q109 -94 108 -297q0 -72 -26 -178h67q135 0 193.5 76.5t58.5 170.5q1 54 -28 115z" />
<glyph unicode="&#xa4;" d="M55 276l146 142q-74 109 -74 244q2 135 74 243l-144 137l127 134l144 -144q96 68 243 68q131 0 238 -70l143 144l131 -130l-141 -139q68 -117 66 -243q2 -135 -66 -240l141 -143l-131 -132l-143 142q-109 -70 -238 -70q-131 0 -243 72l-144 -144zM322 659.5 q0 -102.5 72.5 -174t173 -71.5t173 71.5t72.5 174t-72.5 174t-173 71.5t-173 -71.5t-72.5 -174z" />
<glyph unicode="&#xa5;" d="M754 819l-80 -145v-88h422v-176h-422v-410h-213v410h-420v176h420v88l-80 145h-340v176h252l-293 521h231l336 -611l338 611h232l-295 -521h254v-176h-342z" />
<glyph unicode="&#xa6;" d="M453 1516h231v-689h-231v689zM453 483h231v-688h-231v688z" />
<glyph unicode="&#xa7;" horiz-adv-x="1173" d="M1004 1157h-213q-33 184 -195 184q-104 0 -146 -54t-42 -113q0 -41 24.5 -75t51 -50.5t67.5 -36.5l278 -146q53 -27 86 -47t81 -61t73 -96.5t25 -122.5q0 -193 -185 -316q121 -106 121 -264q0 -184 -128 -299t-314 -115q-182 0 -311.5 117t-139.5 326h213 q8 -109 69.5 -174.5t174.5 -65.5q109 0 166 59.5t57 145.5q0 35 -8 60.5t-51 65.5t-125 83l-314 162q-51 27 -78.5 45t-70.5 58t-64.5 97.5t-21.5 130.5q0 207 190 318q-80 113 -79 215q0 129 101 242.5t292 113.5q66 0 127 -17.5t124.5 -58.5t108 -120.5t56.5 -190.5z M743 680l-342 174q-104 -68 -104 -180q0 -109 104 -162l367 -188q57 47 85 87t28 101q0 59 -32 94t-106 74z" />
<glyph unicode="&#xa8;" d="M621 1552h213v-249h-213v249zM303 1552h213v-249h-213v249z" />
<glyph unicode="&#xa9;" horiz-adv-x="1638" d="M1225 915h-154q-55 166 -240 166q-123 0 -204.5 -91t-81.5 -230q0 -150 82 -236t204 -86q190 0 240 166h154q-14 -127 -124 -219t-270 -92q-199 0 -319.5 132t-120.5 335t121 335t319 132q160 0 270 -92.5t124 -219.5zM821 1540q324 0 552.5 -230.5t228.5 -551.5 q0 -324 -229.5 -553.5t-551.5 -229.5q-328 0 -556 229.5t-228 553.5q0 322 228 552t556 230zM819 1384q-262 0 -440 -184t-178 -442q0 -260 180 -443.5t438 -183.5q256 0 437.5 183.5t181.5 443.5q0 258 -179.5 442t-439.5 184z" />
<glyph unicode="&#xaa;" horiz-adv-x="788" d="M709 1528v-631h-164v72h-4q-18 -35 -69.5 -61.5t-113.5 -26.5q-150 0 -240.5 98t-90.5 231q0 129 89 231.5t246 102.5q57 0 106.5 -25.5t72.5 -62.5h4v72h164zM547 1212q0 78 -52.5 128.5t-132.5 50.5q-82 0 -127 -55.5t-45 -125t49.5 -123t120.5 -53.5q80 0 133.5 48 t53.5 130z" />
<glyph unicode="&#xab;" horiz-adv-x="757" d="M690 973v-232l-153 -151l153 -152v-229l-280 274v211zM348 973v-232l-153 -151l153 -152v-229l-280 274v211z" />
<glyph unicode="&#xac;" horiz-adv-x="1228" d="M918 221v414h-820v213h1032v-627h-212z" />
<glyph unicode="&#xad;" horiz-adv-x="573" d="M573 485h-573v213h573v-213z" />
<glyph unicode="&#xae;" horiz-adv-x="1638" d="M485 1198h377q31 0 55.5 -1t78 -14.5t89 -37t64.5 -72.5t29 -119q0 -178 -166 -217v-4q86 -25 115.5 -76t33.5 -147q6 -121 10.5 -150.5t18.5 -56.5h-154q-23 35 -26 166q-4 109 -40 146.5t-149 46.5h-182v-359h-154v895zM639 1053v-248h184q37 0 60.5 3t61.5 14.5 t58.5 43t20.5 82.5q-12 104 -180 105h-205zM821 1540q324 0 552.5 -230.5t228.5 -551.5q0 -324 -229.5 -553.5t-551.5 -229.5q-328 0 -556 229.5t-228 553.5q0 322 228 552t556 230zM819 1384q-262 0 -440 -184t-178 -442q0 -260 180 -443.5t438 -183.5q256 0 437.5 183.5 t181.5 443.5q0 258 -179.5 442t-439.5 184z" />
<glyph unicode="&#xaf;" d="M932 1350h-727v153h727v-153z" />
<glyph unicode="&#xb0;" horiz-adv-x="819" d="M409.5 993q67.5 0 116.5 52.5t49 121.5q0 68 -49 119t-116.5 51t-116.5 -51t-49 -119q0 -70 49 -122t116.5 -52zM409.5 872q-122.5 0 -207.5 85t-85 208t85 208t207.5 85t207.5 -85t85 -208t-85 -208t-207.5 -85z" />
<glyph unicode="&#xb1;" horiz-adv-x="1228" d="M508 786v332h213v-332h409v-213h-409v-331h-213v331h-410v213h410zM98 -106v212h1032v-212h-1032z" />
<glyph unicode="&#xb2;" horiz-adv-x="718" d="M651 606h-594v127l349 352q80 80 79 152q0 55 -35.5 99t-95.5 44q-63 0 -101 -43t-38 -104v-37h-164v41q0 119 85 209t212 90q129 0 215 -89t86 -210q0 -55 -21.5 -105.5t-41 -76t-58.5 -66.5l-225 -227h348v-156z" />
<glyph unicode="&#xb3;" horiz-adv-x="718" d="M33 885h164q4 -47 22.5 -79t45 -44t44 -16.5t35.5 -4.5q66 0 102.5 41t36.5 99q0 63 -43 102t-104 39h-53v156h51q31 0 53.5 11t32.5 24.5t15 31t6 25.5t1 14q0 41 -25.5 68.5t-72.5 27.5q-37 0 -65.5 -23.5t-30.5 -78.5h-164q0 131 98 203q74 55 162 55q98 0 180 -71.5 t82 -192.5q0 -43 -15.5 -80t-29.5 -51l-37 -39q123 -72 123 -221q0 -129 -94 -212t-217 -83q-117 0 -210 82t-93 217z" />
<glyph unicode="&#xb4;" d="M422 1251l-86 154l457 262l90 -166z" />
<glyph unicode="&#xb5;" horiz-adv-x="1277" d="M152 -379v1514h213v-553q0 -203 47 -291q29 -53 85 -89t130 -36q287 0 286 438v531h213v-1135h-213v123h-4q-16 -27 -27.5 -41t-45 -46t-87 -48.5t-122.5 -16.5q-166 0 -258 107h-4v-457h-213z" />
<glyph unicode="&#xb6;" horiz-adv-x="1306" d="M453 -391v1093q-211 0 -330 97.5t-119 261.5q0 203 129 288t363 85h600v-1825h-213v1661h-217v-1661h-213z" />
<glyph unicode="&#xb7;" horiz-adv-x="567" d="M377 410h-187v221h187v-221z" />
<glyph unicode="&#xb8;" d="M598 0l-43 -139q6 0 20.5 1t20.5 1q68 0 118 -48t50 -124q0 -78 -54.5 -136.5t-146.5 -58.5q-68 0 -125 43t-65 125h108q23 -63 84 -63q37 0 61.5 22.5t24.5 61.5q0 37 -25.5 58t-60.5 21q-37 0 -69 -28l-70 65l66 199h106z" />
<glyph unicode="&#xb9;" horiz-adv-x="718" d="M489 1516v-910h-163v754h-127v156h290z" />
<glyph unicode="&#xba;" horiz-adv-x="788" d="M733 1214q0 -125 -94 -229t-246 -104q-150 0 -245 103t-95 233q0 131 98.5 229t241.5 98q141 0 240.5 -97.5t99.5 -232.5zM569 1214q0 70 -49 123.5t-127 53.5t-127 -53.5t-49 -125.5q0 -70 50 -124t126 -54t126 54t50 126z" />
<glyph unicode="&#xbb;" horiz-adv-x="757" d="M68 741v232l280 -279v-211l-280 -274v229l153 152zM410 741v232l280 -279v-211l-280 -274v229l153 152z" />
<glyph unicode="&#xbc;" horiz-adv-x="1433" d="M410 0h-150l682 1516h150zM1303 909v-628h98v-140h-98v-141h-144v141h-422v142l426 626h140zM907 281h252v389h-4zM324 1516v-910h-164v754h-127v156h291z" />
<glyph unicode="&#xbd;" horiz-adv-x="1462" d="M324 1516v-910h-164v754h-127v156h291zM356 0h-149l688 1516h149zM1430 0h-594v127l348 352q80 80 80 152q0 55 -36 99t-95 44q-63 0 -101.5 -43t-38.5 -104v-37h-164v41q0 119 85 209t212 90q129 0 215 -89t86 -210q0 -55 -21.5 -105.5t-40.5 -76t-58 -66.5l-226 -227 h349v-156z" />
<glyph unicode="&#xbe;" horiz-adv-x="1599" d="M575 0h-149l682 1516h149zM1468 909v-628h99v-140h-99v-141h-143v141h-422v142l426 626h139zM1073 281h252v389h-4zM33 885h164q4 -47 22.5 -79t45 -44t44 -16.5t35.5 -4.5q66 0 102.5 41t36.5 99q0 63 -43 102t-104 39h-53v156h51q31 0 53.5 11t32.5 24.5t15 31t6 25.5 t1 14q0 41 -25.5 68.5t-72.5 27.5q-37 0 -65.5 -23.5t-30.5 -78.5h-164q0 131 98 203q74 55 162 55q98 0 180 -71.5t82 -192.5q0 -43 -15.5 -80t-29.5 -51l-37 -39q123 -72 123 -221q0 -129 -94 -212t-217 -83q-117 0 -210 82t-93 217z" />
<glyph unicode="&#xbf;" horiz-adv-x="1060" d="M440 748h213q-2 -109 -41 -205.5t-76.5 -144.5t-95.5 -105q-92 -94 -118.5 -134t-26.5 -100q0 -106 70.5 -179t171.5 -73q127 0 202 111q33 45 43 135h213q-6 -123 -53 -217t-118.5 -144t-144.5 -75t-144 -25q-193 0 -323 140.5t-130 318.5q0 90 30.5 164t60.5 106.5 t91 88.5q70 61 109 126.5t48 103.5t19 108zM440 887v250h213v-250h-213z" />
<glyph unicode="&#xc0;" horiz-adv-x="1400" d="M1376 0h-235l-168 446h-545l-168 -446h-233l575 1516h199zM506 649h391l-192 580h-5zM473 1997l461 -252l-90 -164l-457 262z" />
<glyph unicode="&#xc1;" horiz-adv-x="1400" d="M1376 0h-235l-168 446h-545l-168 -446h-233l575 1516h199zM506 649h391l-192 580h-5zM555 1581l-86 154l457 262l90 -166z" />
<glyph unicode="&#xc2;" horiz-adv-x="1400" d="M1376 0h-235l-168 446h-545l-168 -446h-233l575 1516h199zM506 649h391l-192 580h-5zM1090 1624h-244l-141 141l-148 -141h-244l285 277h205z" />
<glyph unicode="&#xc3;" horiz-adv-x="1400" d="M1376 0h-235l-168 446h-545l-168 -446h-233l575 1516h199zM506 649h391l-192 580h-5zM422 1651l-96 133q125 80 211 80q23 0 145.5 -28t142.5 -28q47 0 164 58l88 -129q-115 -94 -223 -95q-25 0 -146.5 27t-142.5 27q-53 0 -143 -45z" />
<glyph unicode="&#xc4;" horiz-adv-x="1400" d="M1376 0h-235l-168 446h-545l-168 -446h-233l575 1516h199zM506 649h391l-192 580h-5zM754 1882h213v-250h-213v250zM436 1882h213v-250h-213v250z" />
<glyph unicode="&#xc5;" horiz-adv-x="1400" d="M1376 0h-235l-168 446h-545l-168 -446h-233l575 1516h199zM506 649h391l-192 580h-5zM928 1784q0 -92 -66.5 -158.5t-161.5 -66.5q-92 0 -158.5 66.5t-66.5 158.5q0 94 66.5 160.5t158.5 66.5q94 0 161 -66.5t67 -160.5zM807 1784q0 45 -31 75.5t-76 30.5 q-43 0 -73.5 -30.5t-30.5 -75.5q0 -43 30.5 -74t73.5 -31q45 0 76 31t31 74z" />
<glyph unicode="&#xc6;" horiz-adv-x="1904" d="M1018 1516h756v-203h-517v-447h517v-202h-517v-461h517v-203h-738v420h-499l-277 -420h-260zM682 623h354v565h-2h-4z" />
<glyph unicode="&#xc7;" horiz-adv-x="1601" d="M633 -336h108q23 -63 84 -63q37 0 61.5 22.5t24.5 61.5q0 37 -25.5 58t-60.5 21q-37 0 -69 -28l-70 65l59 181q-283 41 -475 264t-192 518q0 328 229.5 554t550.5 226q260 0 463 -147q135 -96 233 -269h-266q-188 213 -426 213q-236 0 -399.5 -170t-163.5 -409 q0 -242 167 -415t392 -173q244 0 414 201h272q-117 -207 -304 -305.5t-384 -98.5h-6l-35 -110q6 0 20.5 1t20.5 1q68 0 118 -48t50 -124q0 -78 -54.5 -136.5t-146.5 -58.5q-68 0 -125 43t-65 125z" />
<glyph unicode="&#xc8;" horiz-adv-x="1064" d="M950 0h-817v1516h817v-203h-596v-447h596v-202h-596v-461h596v-203zM305 2007l461 -252l-90 -164l-457 262z" />
<glyph unicode="&#xc9;" horiz-adv-x="1064" d="M950 0h-817v1516h817v-203h-596v-447h596v-202h-596v-461h596v-203zM387 1591l-86 154l457 262l90 -166z" />
<glyph unicode="&#xca;" horiz-adv-x="1064" d="M950 0h-817v1516h817v-203h-596v-447h596v-202h-596v-461h596v-203zM922 1634h-244l-141 142l-148 -142h-244l285 277h205z" />
<glyph unicode="&#xcb;" horiz-adv-x="1064" d="M950 0h-817v1516h817v-203h-596v-447h596v-202h-596v-461h596v-203zM586 1892h213v-250h-213v250zM268 1892h213v-250h-213v250z" />
<glyph unicode="&#xcc;" horiz-adv-x="526" d="M375 0h-221v1516h221v-1516zM-47 2007l461 -252l-90 -164l-457 262z" />
<glyph unicode="&#xcd;" horiz-adv-x="526" d="M375 0h-221v1516h221v-1516zM199 1591l-86 154l456 262l90 -166z" />
<glyph unicode="&#xce;" horiz-adv-x="526" d="M375 0h-221v1516h221v-1516zM651 1634h-243l-142 142l-147 -142h-244l285 277h205z" />
<glyph unicode="&#xcf;" horiz-adv-x="526" d="M375 0h-221v1516h221v-1516zM315 1892h213v-250h-213v250zM-2 1892h213v-250h-213v250z" />
<glyph unicode="&#xd0;" horiz-adv-x="1499" d="M133 659h-129v203h129v654h496q412 0 614 -279q156 -217 156 -483q0 -154 -53.5 -303.5t-137.5 -231.5q-221 -219 -587 -219h-488v659zM750 862v-203h-396v-456h269q102 0 196 28.5t177 89t132.5 172t49.5 261.5q0 92 -31 185t-92.5 179t-173 140.5t-254.5 54.5h-273 v-451h396z" />
<glyph unicode="&#xd1;" horiz-adv-x="1511" d="M1358 0h-230l-749 1171h-4v-1171h-221v1516h241l738 -1154h4v1154h221v-1516zM477 1651l-96 133q125 80 211 80q23 0 145.5 -28t143.5 -28q47 0 163 58l89 -129q-115 -94 -224 -95q-25 0 -146.5 27t-141.5 27q-54 0 -144 -45z" />
<glyph unicode="&#xd2;" horiz-adv-x="1732" d="M1655 754q0 -315 -228.5 -549t-560.5 -234q-334 0 -561 234.5t-227 552t225 552t563 234.5q334 0 561.5 -231t227.5 -559zM1434 752q0 104 -37 205.5t-104.5 188.5t-179.5 141t-247 54q-139 0 -251.5 -56t-179 -145t-101.5 -188.5t-35 -193.5q0 -96 35 -195.5 t101.5 -188.5t179 -144.5t252 -55.5t252 56.5t179 144.5t101.5 185.5t35 191.5zM639 2007l461 -252l-90 -164l-457 262z" />
<glyph unicode="&#xd3;" horiz-adv-x="1732" d="M1655 754q0 -315 -228.5 -549t-560.5 -234q-334 0 -561 234.5t-227 552t225 552t563 234.5q334 0 561.5 -231t227.5 -559zM1434 752q0 104 -37 205.5t-104.5 188.5t-179.5 141t-247 54q-139 0 -251.5 -56t-179 -145t-101.5 -188.5t-35 -193.5q0 -96 35 -195.5 t101.5 -188.5t179 -144.5t252 -55.5t252 56.5t179 144.5t101.5 185.5t35 191.5zM721 1591l-86 154l457 262l90 -166z" />
<glyph unicode="&#xd4;" horiz-adv-x="1732" d="M1655 754q0 -315 -228.5 -549t-560.5 -234q-334 0 -561 234.5t-227 552t225 552t563 234.5q334 0 561.5 -231t227.5 -559zM1434 752q0 104 -37 205.5t-104.5 188.5t-179.5 141t-247 54q-139 0 -251.5 -56t-179 -145t-101.5 -188.5t-35 -193.5q0 -96 35 -195.5 t101.5 -188.5t179 -144.5t252 -55.5t252 56.5t179 144.5t101.5 185.5t35 191.5zM1255 1634h-243l-142 142l-147 -142h-244l285 277h205z" />
<glyph unicode="&#xd5;" horiz-adv-x="1732" d="M1655 754q0 -315 -228.5 -549t-560.5 -234q-334 0 -561 234.5t-227 552t225 552t563 234.5q334 0 561.5 -231t227.5 -559zM1434 752q0 104 -37 205.5t-104.5 188.5t-179.5 141t-247 54q-139 0 -251.5 -56t-179 -145t-101.5 -188.5t-35 -193.5q0 -96 35 -195.5 t101.5 -188.5t179 -144.5t252 -55.5t252 56.5t179 144.5t101.5 185.5t35 191.5zM588 1651l-96 133q125 80 210 80q23 0 146 -28t143 -28q47 0 164 58l88 -129q-115 -94 -223 -95q-25 0 -146.5 27t-142.5 27q-53 0 -143 -45z" />
<glyph unicode="&#xd6;" horiz-adv-x="1732" d="M1655 754q0 -315 -228.5 -549t-560.5 -234q-334 0 -561 234.5t-227 552t225 552t563 234.5q334 0 561.5 -231t227.5 -559zM1434 752q0 104 -37 205.5t-104.5 188.5t-179.5 141t-247 54q-139 0 -251.5 -56t-179 -145t-101.5 -188.5t-35 -193.5q0 -96 35 -195.5 t101.5 -188.5t179 -144.5t252 -55.5t252 56.5t179 144.5t101.5 185.5t35 191.5zM920 1892h213v-250h-213v250zM602 1892h213v-250h-213v250z" />
<glyph unicode="&#xd7;" horiz-adv-x="1228" d="M467 518l-342 342l147 148l342 -342l342 342l148 -148l-344 -342l344 -342l-148 -147l-342 344l-342 -344l-147 147z" />
<glyph unicode="&#xd8;" horiz-adv-x="1732" d="M492 63l-144 -196l-164 115l146 200q-252 242 -252 576q0 319 225 552.5t561 233.5q215 0 385 -96l142 194l170 -118l-146 -199q29 -25 59.5 -63.5t76.5 -110.5t75 -176.5t29 -216.5q0 -319 -228.5 -553t-560.5 -234q-208 0 -374 92zM1288 1151l-672 -924 q106 -53 250 -53q137 0 250 55.5t179.5 142.5t102.5 187t36 199q-1 217 -146 393zM455 354l673 926q-115 61 -260 61q-141 0 -255.5 -57t-180 -147t-99.5 -187.5t-34 -191.5q0 -226 156 -404z" />
<glyph unicode="&#xd9;" horiz-adv-x="1316" d="M1165 1516v-1027q0 -242 -153 -389q-156 -129 -354.5 -129t-354.5 129q-154 147 -153 389v1027h221v-1020q0 -80 22.5 -141.5t54 -94.5t73.5 -53.5t74 -26.5t62.5 -6t62.5 6t74 26.5t73.5 53.5t54 94.5t22.5 141.5v1020h221zM379 2007l461 -252l-90 -164l-457 262z" />
<glyph unicode="&#xda;" horiz-adv-x="1316" d="M1165 1516v-1027q0 -242 -153 -389q-156 -129 -354.5 -129t-354.5 129q-154 147 -153 389v1027h221v-1020q0 -80 22.5 -141.5t54 -94.5t73.5 -53.5t74 -26.5t62.5 -6t62.5 6t74 26.5t73.5 53.5t54 94.5t22.5 141.5v1020h221zM563 1591l-86 154l457 262l90 -166z" />
<glyph unicode="&#xdb;" horiz-adv-x="1316" d="M1165 1516v-1027q0 -242 -153 -389q-156 -129 -354.5 -129t-354.5 129q-154 147 -153 389v1027h221v-1020q0 -80 22.5 -141.5t54 -94.5t73.5 -53.5t74 -26.5t62.5 -6t62.5 6t74 26.5t73.5 53.5t54 94.5t22.5 141.5v1020h221zM1047 1634h-244l-141 142l-148 -142h-244 l285 277h205z" />
<glyph unicode="&#xdc;" horiz-adv-x="1316" d="M1165 1516v-1027q0 -242 -153 -389q-156 -129 -354.5 -129t-354.5 129q-154 147 -153 389v1027h221v-1020q0 -80 22.5 -141.5t54 -94.5t73.5 -53.5t74 -26.5t62.5 -6t62.5 6t74 26.5t73.5 53.5t54 94.5t22.5 141.5v1020h221zM711 1892h213v-250h-213v250zM393 1892h213 v-250h-213v250z" />
<glyph unicode="&#xdd;" horiz-adv-x="1214" d="M719 0h-221v547l-471 969h247l334 -711l332 711h246l-467 -969v-547zM512 1591l-86 154l457 262l90 -166z" />
<glyph unicode="&#xde;" horiz-adv-x="1144" d="M354 299v-299h-221v1516h221v-299h217q264 0 399.5 -124t135.5 -335t-135 -335t-400 -124h-217zM354 1014v-512h217q170 0 242 75.5t72 180t-72 180.5t-242 76h-217z" />
<glyph unicode="&#xdf;" horiz-adv-x="1310" d="M135 0v1057q0 133 45 233.5t116 152.5t142.5 76.5t141.5 24.5q186 0 319 -133t133 -315q0 -152 -119 -246q160 -39 240 -155.5t80 -245.5q0 -203 -134 -340.5t-337 -137.5q-154 0 -258 76q-55 39 -88 77t-43.5 61.5t-22.5 68.5h-4v-254h-211zM348 1057v-660h172 q20 -121 101 -180q66 -51 149 -51q113 0 181.5 80t68.5 182q0 18 -2 36.5t-18.5 61.5t-46 74t-94 56.5t-152.5 25.5h-148v188q74 2 127 26t77.5 51.5t38 66.5t15.5 57.5t2 36.5q0 92 -63.5 167t-171.5 75q-66 0 -114 -27t-70.5 -60.5t-36 -83t-14.5 -72.5t-1 -50z" />
<glyph unicode="&#xe0;" horiz-adv-x="1419" d="M1282 0h-213v176h-4q-59 -100 -161.5 -152.5t-223.5 -52.5q-274 0 -438 177.5t-164 414.5q0 106 38 211t109.5 194t190.5 143t264 54q121 0 223.5 -49t161.5 -141h4v160h213v-1135zM1073 565q0 178 -112.5 292t-280.5 114q-182 0 -285.5 -127t-103.5 -279 q0 -158 111.5 -278.5t275.5 -120.5q166 0 280.5 117.5t114.5 281.5zM481 1667l461 -252l-90 -164l-457 262z" />
<glyph unicode="&#xe1;" horiz-adv-x="1419" d="M1282 0h-213v176h-4q-59 -100 -161.5 -152.5t-223.5 -52.5q-274 0 -438 177.5t-164 414.5q0 106 38 211t109.5 194t190.5 143t264 54q121 0 223.5 -49t161.5 -141h4v160h213v-1135zM1073 565q0 178 -112.5 292t-280.5 114q-182 0 -285.5 -127t-103.5 -279 q0 -158 111.5 -278.5t275.5 -120.5q166 0 280.5 117.5t114.5 281.5zM563 1251l-86 154l457 262l90 -166z" />
<glyph unicode="&#xe2;" horiz-adv-x="1419" d="M1282 0h-213v176h-4q-59 -100 -161.5 -152.5t-223.5 -52.5q-274 0 -438 177.5t-164 414.5q0 106 38 211t109.5 194t190.5 143t264 54q121 0 223.5 -49t161.5 -141h4v160h213v-1135zM1073 565q0 178 -112.5 292t-280.5 114q-182 0 -285.5 -127t-103.5 -279 q0 -158 111.5 -278.5t275.5 -120.5q166 0 280.5 117.5t114.5 281.5zM1098 1294h-244l-141 142l-148 -142h-243l284 277h205z" />
<glyph unicode="&#xe3;" horiz-adv-x="1419" d="M1282 0h-213v176h-4q-59 -100 -161.5 -152.5t-223.5 -52.5q-274 0 -438 177.5t-164 414.5q0 106 38 211t109.5 194t190.5 143t264 54q121 0 223.5 -49t161.5 -141h4v160h213v-1135zM1073 565q0 178 -112.5 292t-280.5 114q-182 0 -285.5 -127t-103.5 -279 q0 -158 111.5 -278.5t275.5 -120.5q166 0 280.5 117.5t114.5 281.5zM430 1311l-96 133q125 80 211 80q23 0 145.5 -28t143.5 -28q47 0 163 58l88 -129q-115 -94 -223 -94q-25 0 -146.5 26.5t-142.5 26.5q-53 0 -143 -45z" />
<glyph unicode="&#xe4;" horiz-adv-x="1419" d="M1282 0h-213v176h-4q-59 -100 -161.5 -152.5t-223.5 -52.5q-274 0 -438 177.5t-164 414.5q0 106 38 211t109.5 194t190.5 143t264 54q121 0 223.5 -49t161.5 -141h4v160h213v-1135zM1073 565q0 178 -112.5 292t-280.5 114q-182 0 -285.5 -127t-103.5 -279 q0 -158 111.5 -278.5t275.5 -120.5q166 0 280.5 117.5t114.5 281.5zM762 1552h213v-249h-213v249zM444 1552h213v-249h-213v249z" />
<glyph unicode="&#xe5;" horiz-adv-x="1419" d="M1282 0h-213v176h-4q-59 -100 -161.5 -152.5t-223.5 -52.5q-274 0 -438 177.5t-164 414.5q0 106 38 211t109.5 194t190.5 143t264 54q121 0 223.5 -49t161.5 -141h4v160h213v-1135zM1073 565q0 178 -112.5 292t-280.5 114q-182 0 -285.5 -127t-103.5 -279 q0 -158 111.5 -278.5t275.5 -120.5q166 0 280.5 117.5t114.5 281.5zM936 1475q0 -92 -66.5 -159t-160.5 -67q-92 0 -159 66.5t-67 159.5q0 94 66.5 160.5t159.5 66.5q94 0 160.5 -66.5t66.5 -160.5zM815 1475q0 45 -30.5 75.5t-75.5 30.5q-43 0 -74 -30.5t-31 -75.5 q0 -43 31 -74t74 -31q45 0 75.5 31t30.5 74z" />
<glyph unicode="&#xe6;" horiz-adv-x="2316" d="M2232 477h-946q23 -127 125 -219t246 -92q92 0 184 47t144 147h219q-39 -111 -110 -191.5t-150.5 -120.5t-150.5 -58.5t-132 -18.5q-229 2 -379 162h-4v-133h-195v133q-49 -45 -84.5 -70.5t-123 -58.5t-189.5 -33q-272 0 -440 181.5t-168 425.5q0 248 172 417.5 t428 169.5q244 0 401 -164h4v134h195v-134h4q51 66 133 106t140.5 49t111.5 9q240 0 405.5 -178t165.5 -414q0 -10 -6 -96zM1073 571q0 162 -108.5 281t-288.5 119q-176 0 -280.5 -118t-104.5 -278q0 -166 104.5 -287.5t280.5 -121.5q174 0 285.5 119.5t111.5 285.5z M1286 625h739q-8 121 -71.5 202.5t-139 112.5t-155.5 31q-57 0 -115.5 -18.5t-115 -57.5t-95.5 -108.5t-47 -161.5z" />
<glyph unicode="&#xe7;" horiz-adv-x="1284" d="M455 -336h108q23 -63 84 -63q37 0 61.5 22.5t24.5 61.5q0 37 -25.5 58t-60.5 21q-37 0 -69 -28l-70 65l59 179q-225 33 -357 204.5t-132 384.5q0 242 161.5 419t422.5 177q219 0 368.5 -129t188.5 -278h-236q-104 213 -319 213q-129 0 -217.5 -66.5t-122 -153.5 t-33.5 -182q0 -160 98 -281.5t270 -121.5q115 0 197 57.5t125 151.5h238q-61 -184 -210 -291t-337 -111l-35 -112q6 0 20.5 1t20.5 1q68 0 118 -48t50 -124q0 -78 -54.5 -136.5t-146.5 -58.5q-68 0 -125 43t-65 125z" />
<glyph unicode="&#xe8;" horiz-adv-x="1314" d="M1233 475h-940q37 -154 144.5 -231.5t228.5 -77.5q111 0 196.5 55t126.5 135h213q-51 -137 -151.5 -228t-197.5 -124t-196 -33q-240 0 -408.5 177.5t-168.5 420.5q0 252 170 424t412 172q233 0 404 -168t173 -413q0 -66 -6 -109zM293 639h733q-8 129 -113.5 230.5 t-253 101.5t-253 -101.5t-113.5 -230.5zM430 1667l461 -252l-90 -164l-457 262z" />
<glyph unicode="&#xe9;" horiz-adv-x="1314" d="M1233 475h-940q37 -154 144.5 -231.5t228.5 -77.5q111 0 196.5 55t126.5 135h213q-51 -137 -151.5 -228t-197.5 -124t-196 -33q-240 0 -408.5 177.5t-168.5 420.5q0 252 170 424t412 172q233 0 404 -168t173 -413q0 -66 -6 -109zM293 639h733q-8 129 -113.5 230.5 t-253 101.5t-253 -101.5t-113.5 -230.5zM512 1251l-86 154l457 262l90 -166z" />
<glyph unicode="&#xea;" horiz-adv-x="1314" d="M1233 475h-940q37 -154 144.5 -231.5t228.5 -77.5q111 0 196.5 55t126.5 135h213q-51 -137 -151.5 -228t-197.5 -124t-196 -33q-240 0 -408.5 177.5t-168.5 420.5q0 252 170 424t412 172q233 0 404 -168t173 -413q0 -66 -6 -109zM293 639h733q-8 129 -113.5 230.5 t-253 101.5t-253 -101.5t-113.5 -230.5zM1047 1294h-244l-141 142l-148 -142h-244l285 277h205z" />
<glyph unicode="&#xeb;" horiz-adv-x="1314" d="M1233 475h-940q37 -154 144.5 -231.5t228.5 -77.5q111 0 196.5 55t126.5 135h213q-51 -137 -151.5 -228t-197.5 -124t-196 -33q-240 0 -408.5 177.5t-168.5 420.5q0 252 170 424t412 172q233 0 404 -168t173 -413q0 -66 -6 -109zM293 639h733q-8 129 -113.5 230.5 t-253 101.5t-253 -101.5t-113.5 -230.5zM711 1552h213v-249h-213v249zM393 1552h213v-249h-213v249z" />
<glyph unicode="&#xec;" horiz-adv-x="487" d="M350 1135v-1135h-213v1135h213zM-66 1667l461 -252l-90 -164l-457 262z" />
<glyph unicode="&#xed;" horiz-adv-x="487" d="M350 1135v-1135h-213v1135h213zM180 1251l-86 154l457 262l90 -166z" />
<glyph unicode="&#xee;" horiz-adv-x="487" d="M350 1135v-1135h-213v1135h213zM633 1294h-244l-141 142l-148 -142h-243l284 277h205z" />
<glyph unicode="&#xef;" horiz-adv-x="487" d="M350 1135v-1135h-213v1135h213zM297 1552h213v-249h-213v249zM-20 1552h213v-249h-213v249z" />
<glyph unicode="&#xf0;" horiz-adv-x="1382" d="M688 971q-174 0 -285.5 -125t-111.5 -277q0 -154 112.5 -278.5t288.5 -124.5q178 0 288 124t110 285q0 154 -107 275t-295 121zM1110 1438l-221 -74q203 -141 308.5 -345t105.5 -415q0 -274 -176.5 -453.5t-436.5 -179.5q-143 0 -263 56.5t-194.5 145.5t-114.5 193.5 t-40 206.5q0 244 179 418t421 174q111 0 207 -57l4 4q-80 94 -227 178l-343 -114l-135 104l299 100q-53 23 -223 84l246 80q100 -25 219 -84l254 84z" />
<glyph unicode="&#xf1;" horiz-adv-x="1277" d="M1143 0h-213v616q0 354 -283 355q-137 0 -218 -92.5t-81 -260.5v-618h-213v1135h199v-121h4q115 152 332 151q270 0 401 -202q70 -113 72 -291v-672zM360 1311l-96 133q125 80 211 80q23 0 145.5 -28t143.5 -28q47 0 164 58l88 -129q-115 -94 -223 -94q-25 0 -147 26.5 t-142 26.5q-54 0 -144 -45z" />
<glyph unicode="&#xf2;" horiz-adv-x="1382" d="M1303 571q0 -143 -71 -278t-215.5 -228.5t-326.5 -93.5q-270 0 -441 186.5t-171 417.5q0 238 177 414t435 176q256 0 434.5 -175t178.5 -419zM1090 571q0 158 -113 279t-287 121t-286.5 -121t-112.5 -280.5t113.5 -281.5t285.5 -122q170 0 285 120.5t115 284.5zM463 1667 l461 -252l-90 -164l-457 262z" />
<glyph unicode="&#xf3;" horiz-adv-x="1382" d="M1303 571q0 -143 -71 -278t-215.5 -228.5t-326.5 -93.5q-270 0 -441 186.5t-171 417.5q0 238 177 414t435 176q256 0 434.5 -175t178.5 -419zM1090 571q0 158 -113 279t-287 121t-286.5 -121t-112.5 -280.5t113.5 -281.5t285.5 -122q170 0 285 120.5t115 284.5zM545 1251 l-86 154l456 262l91 -166z" />
<glyph unicode="&#xf4;" horiz-adv-x="1382" d="M1303 571q0 -143 -71 -278t-215.5 -228.5t-326.5 -93.5q-270 0 -441 186.5t-171 417.5q0 238 177 414t435 176q256 0 434.5 -175t178.5 -419zM1090 571q0 158 -113 279t-287 121t-286.5 -121t-112.5 -280.5t113.5 -281.5t285.5 -122q170 0 285 120.5t115 284.5z M1079 1294h-243l-142 142l-147 -142h-244l285 277h205z" />
<glyph unicode="&#xf5;" horiz-adv-x="1382" d="M1303 571q0 -143 -71 -278t-215.5 -228.5t-326.5 -93.5q-270 0 -441 186.5t-171 417.5q0 238 177 414t435 176q256 0 434.5 -175t178.5 -419zM1090 571q0 158 -113 279t-287 121t-286.5 -121t-112.5 -280.5t113.5 -281.5t285.5 -122q170 0 285 120.5t115 284.5zM412 1311 l-97 133q125 80 211 80q23 0 146 -28t143 -28q47 0 164 58l88 -129q-115 -94 -223 -94q-25 0 -147 26.5t-142 26.5q-53 0 -143 -45z" />
<glyph unicode="&#xf6;" horiz-adv-x="1382" d="M1303 571q0 -143 -71 -278t-215.5 -228.5t-326.5 -93.5q-270 0 -441 186.5t-171 417.5q0 238 177 414t435 176q256 0 434.5 -175t178.5 -419zM1090 571q0 158 -113 279t-287 121t-286.5 -121t-112.5 -280.5t113.5 -281.5t285.5 -122q170 0 285 120.5t115 284.5zM743 1552 h213v-249h-213v249zM426 1552h213v-249h-213v249z" />
<glyph unicode="&#xf7;" horiz-adv-x="1228" d="M1130 412h-1032v213h1032v-213zM721 815h-213v221h213v-221zM721 0h-213v221h213v-221z" />
<glyph unicode="&#xf8;" horiz-adv-x="1382" d="M446 20l-106 -161l-162 108l105 158q-205 188 -205 450q0 238 177 414t435 176q135 0 244 -49l104 160l164 -109l-102 -155q100 -86 151.5 -203t51.5 -236q0 -109 -43 -215t-120 -193t-195 -140.5t-255 -53.5q-131 0 -244 49zM987 840l-430 -652q68 -23 133 -22 q172 0 286 122t114 281q-1 156 -103 271zM395 297l428 651q-68 23 -133 23q-172 0 -285.5 -121t-113.5 -281q0 -151 104 -272z" />
<glyph unicode="&#xf9;" horiz-adv-x="1277" d="M135 1135h213v-615q0 -197 76 -275.5t207 -78.5q137 0 217 90t80 270v609h213v-1135h-195v123h-4q-43 -72 -133 -112t-201 -40q-195 0 -323 113q-150 129 -150 436v615zM360 1667l461 -252l-90 -164l-457 262z" />
<glyph unicode="&#xfa;" horiz-adv-x="1277" d="M135 1135h213v-615q0 -197 76 -275.5t207 -78.5q137 0 217 90t80 270v609h213v-1135h-195v123h-4q-43 -72 -133 -112t-201 -40q-195 0 -323 113q-150 129 -150 436v615zM545 1251l-86 154l456 262l91 -166z" />
<glyph unicode="&#xfb;" horiz-adv-x="1277" d="M135 1135h213v-615q0 -197 76 -275.5t207 -78.5q137 0 217 90t80 270v609h213v-1135h-195v123h-4q-43 -72 -133 -112t-201 -40q-195 0 -323 113q-150 129 -150 436v615zM1028 1294h-244l-141 142l-147 -142h-244l285 277h204z" />
<glyph unicode="&#xfc;" horiz-adv-x="1277" d="M135 1135h213v-615q0 -197 76 -275.5t207 -78.5q137 0 217 90t80 270v609h213v-1135h-195v123h-4q-43 -72 -133 -112t-201 -40q-195 0 -323 113q-150 129 -150 436v615zM692 1552h213v-249h-213v249zM375 1552h213v-249h-213v249z" />
<glyph unicode="&#xfd;" horiz-adv-x="1175" d="M1155 1135l-627 -1514h-221l166 402l-453 1112h230l334 -881l342 881h229zM494 1251l-86 154l456 262l90 -166z" />
<glyph unicode="&#xfe;" horiz-adv-x="1404" d="M137 -379v1895h213v-539h4q59 94 164 141t221 47q272 0 430 -183t158 -429q0 -229 -158.5 -405.5t-414.5 -176.5q-158 0 -257.5 58.5t-142.5 134.5h-4v-543h-213zM1114 565q0 160 -110.5 283t-278.5 123q-164 0 -271.5 -120t-107.5 -282q0 -172 111.5 -287.5 t273.5 -115.5q156 0 269.5 112.5t113.5 286.5z" />
<glyph unicode="&#xff;" horiz-adv-x="1175" d="M1155 1135l-627 -1514h-221l166 402l-453 1112h230l334 -881l342 881h229zM641 1552h213v-249h-213v249zM324 1552h213v-249h-213v249z" />
<glyph unicode="&#x152;" horiz-adv-x="2240" d="M1421 1516h725v-203h-504v-447h504v-202h-504v-461h504v-203h-725v217h-4q-59 -86 -146 -141.5t-178.5 -74.5t-136.5 -24.5t-88 -5.5q-184 0 -337.5 67.5t-251 179.5t-149.5 249t-52 283q0 139 51 276t145.5 255t251 190.5t346.5 72.5q156 0 308.5 -61.5t236.5 -188.5h4 v222zM862 174q254 0 408.5 171t154.5 403q0 229 -152.5 411t-408.5 182q-176 0 -308 -92t-194.5 -224t-62.5 -277q0 -231 154.5 -402.5t408.5 -171.5z" />
<glyph unicode="&#x153;" horiz-adv-x="2342" d="M2263 477l-960 2q23 -121 128 -217t248 -96q121 0 208 55t132 139h215q-43 -109 -112.5 -187.5t-132 -116.5t-137 -58.5t-108.5 -23.5t-65 -3q-127 0 -259 63.5t-220 213.5q-66 -109 -194.5 -193t-307.5 -84q-139 0 -260 54.5t-197.5 141.5t-119.5 192.5t-43 211.5 q0 236 173 415t431 179q113 0 208 -30.5t157.5 -79.5t94.5 -84t56 -72q158 266 479 266q246 0 418 -168t172 -428q0 -43 -4 -92zM1087 563q0 178 -115.5 293t-287.5 115q-162 0 -277.5 -118t-115.5 -282q0 -162 114.5 -283.5t278.5 -121.5t283.5 113.5t119.5 283.5z M1303 625h751q-18 182 -128.5 264t-246.5 80q-133 2 -242 -81t-134 -263z" />
<glyph unicode="&#x178;" horiz-adv-x="1214" d="M719 0h-221v547l-471 969h247l334 -711l332 711h246l-467 -969v-547zM659 1892h213v-250h-213v250zM342 1892h213v-250h-213v250z" />
<glyph unicode="&#x2c6;" d="M956 1294h-243l-142 142l-147 -142h-244l285 277h205z" />
<glyph unicode="&#x2dc;" d="M289 1311l-96 133q125 80 210 80q23 0 146 -28t143 -28q47 0 164 58l88 -129q-115 -94 -223 -94q-25 0 -146.5 26.5t-142.5 26.5q-53 0 -143 -45z" />
<glyph unicode="&#x3bc;" horiz-adv-x="1277" d="M152 -379v1514h213v-553q0 -203 47 -291q29 -53 85 -89t130 -36q287 0 286 438v531h213v-1135h-213v123h-4q-16 -27 -27.5 -41t-45 -46t-87 -48.5t-122.5 -16.5q-166 0 -258 107h-4v-457h-213z" />
<glyph unicode="&#x2000;" horiz-adv-x="1005" />
<glyph unicode="&#x2001;" horiz-adv-x="2011" />
<glyph unicode="&#x2002;" horiz-adv-x="1005" />
<glyph unicode="&#x2003;" horiz-adv-x="2011" />
<glyph unicode="&#x2004;" horiz-adv-x="669" />
<glyph unicode="&#x2005;" horiz-adv-x="501" />
<glyph unicode="&#x2006;" horiz-adv-x="333" />
<glyph unicode="&#x2007;" horiz-adv-x="333" />
<glyph unicode="&#x2008;" horiz-adv-x="249" />
<glyph unicode="&#x2009;" horiz-adv-x="401" />
<glyph unicode="&#x200a;" horiz-adv-x="110" />
<glyph unicode="&#x2010;" horiz-adv-x="573" d="M573 485h-573v213h573v-213z" />
<glyph unicode="&#x2011;" horiz-adv-x="573" d="M573 485h-573v213h573v-213z" />
<glyph unicode="&#x2012;" horiz-adv-x="573" d="M573 485h-573v213h573v-213z" />
<glyph unicode="&#x2013;" horiz-adv-x="1024" d="M952 485h-880v213h880v-213z" />
<glyph unicode="&#x2014;" horiz-adv-x="2048" d="M1976 485h-1904v213h1904v-213z" />
<glyph unicode="&#x2018;" horiz-adv-x="567" d="M176 1004v227q0 240 213 285v-130q-76 -25 -76 -114v-19h76v-249h-213z" />
<glyph unicode="&#x2019;" horiz-adv-x="567" d="M391 1516v-228q0 -240 -213 -284v129q76 25 76 114v19h-76v250h213z" />
<glyph unicode="&#x201a;" horiz-adv-x="567" d="M391 250v-227q0 -240 -213 -285v129q76 25 76 115v18h-76v250h213z" />
<glyph unicode="&#x201c;" horiz-adv-x="870" d="M489 1004v227q0 240 213 285v-130q-76 -25 -75 -114v-19h75v-249h-213zM170 1004v227q0 240 213 285v-130q-76 -25 -76 -114v-19h76v-249h-213z" />
<glyph unicode="&#x201d;" horiz-adv-x="870" d="M381 1516v-228q0 -240 -213 -284v129q76 25 76 114v19h-76v250h213zM700 1516v-228q0 -240 -213 -284v129q76 25 76 114v19h-76v250h213z" />
<glyph unicode="&#x201e;" horiz-adv-x="870" d="M381 250v-227q0 -240 -213 -285v129q76 25 76 115v18h-76v250h213zM700 250v-227q0 -240 -213 -285v129q76 25 76 115v18h-76v250h213z" />
<glyph unicode="&#x2022;" horiz-adv-x="1241" d="M623 1090q127 0 218 -93.5t91 -224.5t-92 -224t-219 -93q-129 0 -221.5 94t-92.5 223t91.5 223.5t224.5 94.5z" />
<glyph unicode="&#x2026;" horiz-adv-x="2048" d="M449 0h-213v250h213v-250zM1130 0h-212v250h212v-250zM1812 0h-213v250h213v-250z" />
<glyph unicode="&#x202f;" horiz-adv-x="401" />
<glyph unicode="&#x2039;" horiz-adv-x="419" d="M350 973v-232l-153 -151l153 -152v-229l-280 274v211z" />
<glyph unicode="&#x203a;" horiz-adv-x="419" d="M70 741v232l280 -279v-211l-280 -274v229l153 152z" />
<glyph unicode="&#x205f;" horiz-adv-x="501" />
<glyph unicode="&#x2122;" horiz-adv-x="2027" d="M1153 1434l203 -533l200 533h293v-844h-200v598h-4l-213 -598h-154l-213 598h-4v-598h-201v844h293zM692 1434v-162h-246v-682h-200v682h-246v162h692z" />
<glyph unicode="&#xe000;" horiz-adv-x="1135" d="M0 1135h1135v-1135h-1135v1135z" />
<glyph unicode="&#xfb01;" horiz-adv-x="995" d="M858 1516v-250h-213v250h213zM555 1516v-195q-199 0 -199 -131v-55h502v-1135h-213v940h-289v-940h-213v940h-100v195h100v55q0 172 136 264q66 39 121 50.5t155 11.5z" />
<glyph unicode="&#xfb02;" horiz-adv-x="995" d="M555 1516v-195q-199 0 -199 -131v-55h289v381h213v-1516h-213v940h-289v-940h-213v940h-100v195h100v55q0 172 136 264q66 39 121 50.5t155 11.5z" />
<glyph unicode="&#xfb03;" horiz-adv-x="1622" d="M1485 1135v-1135h-213v1135h213zM1485 1516v-250h-213v250h213zM923 0h-213v940h-100v195h100v55q0 172 136 264q66 39 121 50.5t155 11.5v-195q-199 0 -199 -131v-55h199v-195h-199v-940zM356 0h-213v940h-100v195h100v55q0 172 136 264q66 39 121 50.5t155 11.5v-195 q-199 0 -199 -131v-55h199v-195h-199v-940z" />
<glyph unicode="&#xfb04;" horiz-adv-x="1622" d="M1485 1516v-1516h-213v1516h213zM923 0h-213v940h-100v195h100v55q0 172 136 264q66 39 121 50.5t155 11.5v-195q-199 0 -199 -131v-55h199v-195h-199v-940zM356 0h-213v940h-100v195h100v55q0 172 136 264q66 39 121 50.5t155 11.5v-195q-199 0 -199 -131v-55h199v-195 h-199v-940z" />
</font>
</defs>
</svg>
